<?xml version="1.0" standalone="no"?>
<!DOCTYPE svg PUBLIC "-//W3C//DTD SVG 20010904//EN"
 "http://www.w3.org/TR/2001/REC-SVG-20010904/DTD/svg10.dtd">
<svg version="1.0" xmlns="http://www.w3.org/2000/svg"
 width="500.000000pt" height="161.000000pt" viewBox="0 0 500.000000 161.000000"
 preserveAspectRatio="xMidYMid meet">

<g transform="translate(0.000000,161.000000) scale(0.100000,-0.100000)"
fill="#000000" stroke="none">
<path d="M2968 711 l3 -80 -54 6 c-50 5 -57 3 -88 -25 -31 -27 -34 -35 -37
-101 -4 -70 -4 -71 31 -106 38 -38 71 -44 124 -24 19 7 29 7 31 0 2 -6 17 -11
34 -11 29 0 30 2 24 31 -3 17 -6 112 -6 210 l0 179 -32 0 -33 0 3 -79z m-14
-133 c10 -14 16 -44 16 -84 0 -59 -1 -62 -29 -74 -53 -22 -91 18 -91 96 0 24
8 43 25 59 30 31 59 32 79 3z"/>
<path d="M3115 774 c-19 -20 -16 -43 8 -58 20 -13 50 2 55 26 3 16 -23 48 -38
48 -5 0 -16 -7 -25 -16z"/>
<path d="M3524 774 c3 -9 6 -103 6 -210 l0 -194 30 0 30 0 0 210 0 210 -36 0
c-29 0 -35 -3 -30 -16z"/>
<path d="M2080 570 l0 -200 30 0 30 0 1 153 0 152 57 -152 c68 -184 77 -190
118 -75 15 42 40 111 55 152 l28 75 0 -152 1 -153 35 0 35 0 0 201 0 200 -47
-3 -47 -3 -47 -139 c-49 -141 -59 -164 -59 -130 0 10 -21 76 -47 147 l-48 127
-47 0 -48 0 0 -200z"/>
<path d="M3300 763 c-8 -3 -27 -17 -42 -31 -22 -20 -28 -35 -28 -67 0 -52 17
-75 76 -104 90 -44 117 -87 76 -124 -24 -22 -91 -22 -121 -1 -19 14 -25 14
-32 3 -27 -43 13 -69 103 -69 87 0 138 44 138 120 0 48 -24 76 -91 110 -24 12
-52 29 -61 38 -21 17 -23 53 -6 70 15 15 73 16 99 1 17 -8 23 -7 35 8 7 10 14
21 14 25 1 20 -119 36 -160 21z"/>
<path d="M3981 684 c-7 -19 -23 -40 -37 -46 -30 -14 -31 -36 -1 -40 21 -3 22
-8 25 -102 1 -55 8 -106 14 -113 17 -21 102 -13 106 9 2 12 -5 17 -25 20 l-28
3 -3 92 -3 92 28 3 c17 2 29 10 31 21 3 13 -3 17 -28 17 -31 0 -32 1 -28 40 3
35 1 40 -17 40 -15 0 -25 -10 -34 -36z"/>
<path d="M2582 627 c-32 -15 -62 -77 -62 -127 0 -81 49 -130 129 -130 40 0 91
17 91 30 0 16 -26 29 -40 20 -8 -6 -30 -10 -48 -10 -26 0 -36 6 -52 33 -32 52
-28 56 62 59 71 3 83 6 86 21 12 60 -39 117 -102 116 -23 0 -51 -5 -64 -12z
m98 -47 c16 -30 4 -40 -51 -40 -53 0 -60 9 -29 40 26 26 66 26 80 0z"/>
<path d="M3110 505 l0 -135 30 0 30 0 0 135 0 135 -30 0 -30 0 0 -135z"/>
<path d="M3714 630 c-59 -23 -89 -120 -59 -184 28 -59 61 -79 122 -74 59 5 88
25 109 75 29 68 3 150 -56 180 -28 14 -85 16 -116 3z m100 -52 c10 -13 16 -43
16 -73 0 -63 -20 -95 -60 -95 -38 0 -60 32 -60 88 0 43 13 81 34 94 21 15 55
8 70 -14z"/>
</g>
</svg>
